<?xml version="1.0" standalone="no"?>
<!DOCTYPE svg PUBLIC "-//W3C//DTD SVG 20010904//EN"
 "http://www.w3.org/TR/2001/REC-SVG-20010904/DTD/svg10.dtd">
<svg version="1.0" xmlns="http://www.w3.org/2000/svg"
 width="1144.000000pt" height="1144.000000pt" viewBox="0 0 1144.000000 1144.000000"
 preserveAspectRatio="xMidYMid meet">

<g transform="translate(0.000000,1144.000000) scale(0.100000,-0.100000)"
fill="#000000" stroke="none">
<path d="M5580 9689 c-44 -18 -90 -59 -111 -102 -18 -34 -21 -53 -16 -111 4
-66 29 -128 347 -871 188 -440 353 -827 365 -860 20 -52 1026 -2407 1627
-3810 115 -269 224 -517 242 -550 18 -33 116 -197 218 -365 102 -168 256 -424
343 -570 206 -346 266 -442 271 -437 5 4 -20 85 -140 462 -32 99 -112 369
-177 599 -66 230 -133 453 -148 495 -15 42 -164 395 -331 786 -166 390 -308
725 -315 745 -7 19 -233 550 -503 1180 -269 630 -695 1626 -947 2215 -251 588
-470 1089 -486 1111 -50 74 -164 113 -239 83z m189 -246 c34 -32 126 -258 210
-513 164 -501 171 -530 135 -530 -16 0 -19 5 -104 160 -35 63 -85 151 -111
196 -27 45 -49 84 -49 87 0 4 -24 50 -54 104 -63 116 -180 366 -190 405 -8 33
14 91 41 107 35 20 91 13 122 -16z"/>
<path d="M4410 9668 c-1 -20 201 -990 215 -1028 27 -78 2137 -5036 2209 -5192
20 -42 36 -81 36 -86 0 -5 -27 -30 -60 -55 -117 -92 -213 -246 -251 -405 -40
-166 -14 -360 68 -512 96 -176 237 -294 433 -361 89 -31 104 -33 230 -33 127
0 141 2 234 34 187 63 341 194 426 360 77 151 100 342 61 503 -61 257 -246
459 -495 542 -43 15 -110 29 -147 32 -38 3 -75 11 -83 17 -12 9 -126 263 -126
280 0 6 -1716 4029 -1749 4101 -16 33 -117 267 -225 520 -206 483 -254 575
-405 774 -32 42 -122 166 -199 276 -171 242 -171 242 -172 233z m3015 -6648
c198 -97 247 -359 96 -510 -71 -70 -129 -94 -231 -94 -72 0 -93 4 -141 27 -66
32 -132 99 -162 165 -33 72 -31 200 5 267 34 65 90 117 158 150 48 23 66 25
140 23 66 -2 96 -9 135 -28z"/>
<path d="M4416 7953 c-65 -174 -660 -1849 -1639 -4618 -413 -1168 -402 -1131
-351 -1225 73 -135 261 -141 347 -12 14 22 66 154 116 293 438 1230 622 1749
1172 3296 346 975 629 1784 629 1797 0 40 -216 526 -237 533 -6 2 -22 -26 -37
-64z"/>
</g>
</svg>
